<?xml version="1.0" encoding="UTF-8"?><svg id="Calque_1" xmlns="http://www.w3.org/2000/svg" viewBox="0 0 1366 209.61"><defs><style>.cls-1{fill:#fff;}</style></defs><path class="cls-1" d="m1366,0v191.24c-17.61,9.08-33.88,14.35-49.42,16.76-14.64,2.28-28.65,2.01-42.56,0-20.54-2.96-40.87-9.74-62.68-17.79-33.67-12.42-70.89-27.87-117.95-36.99-68.16-13.21-123.66,15.72-177.58,35.02-41.1,14.73-81.28,23.87-125.45,4.52-4.3-1.88-8.62-3.7-12.94-5.44-98.37-39.63-201.99-42.79-271.9-19.4-19.97,6.68-39.35,12.74-59.57,17.2-41.22,9.11-85.92,11.56-146.25-.98-18.2-3.77-37.82-8.91-59.2-15.64C113.5,128.5,0,182.15,0,182.15V0h1366Z"/></svg>